<svg xmlns="http://www.w3.org/2000/svg" viewBox="0 0 500 500"><g id="freepik--Floor--inject-173"><path id="freepik--floor--inject-173" d="M85.83,253.84c-90.67,52.34-90.66,137.21,0,189.56s237.67,52.34,328.34,0,90.66-137.22,0-189.56S176.5,201.49,85.83,253.84Z" style="fill:#f0f0f0"></path></g><g id="freepik--Clouds--inject-173"><path id="freepik--Cloud--inject-173" d="M82.28,81.19a8.09,8.09,0,0,0-2.66-.49c-.85-.07-1.13-.24-1.29-.42A6.34,6.34,0,0,0,70.72,78,4.87,4.87,0,0,0,65,74.79c.1-2.68-3.32-5.55-6.38-6.2s-5.51-.37-7.19,1.57c-1.8-3.51-8.84-4.5-12.65-2.64-2.2,1.06-4.06,2.16-5,4.17a8.34,8.34,0,0,0-.83,4,7,7,0,0,0-6.44-.89c-2.14.82-2.31,2.44-2.41,4.08a7.45,7.45,0,0,0-3.9-.07c-1.34.4-2.12,1.45-1.94,2.31-1.06-.06-3.6.8-3.31,1.93s3.23,1.13,4.31,1.09a20.26,20.26,0,0,0,3-.47,4.87,4.87,0,0,0,1.57.3c1.85,0,2.63-.81,2.93-1.5.9,1.9,4.11,3.35,6.38,3.93,4.27,1.09,10.31.43,12.94-2.77a4.8,4.8,0,0,0,1.27,1.55,7.43,7.43,0,0,0,4,1.61c1.75.16,6.46.38,7.78-2.4.94,1.85,5.13,2.69,8.32,2.24A13,13,0,0,0,71,85.54a18.53,18.53,0,0,0,2-1.23,1.73,1.73,0,0,1,1.75-.12,10.45,10.45,0,0,0,7,0C83.58,83.44,84,82,82.28,81.19Z" style="fill:#f5f5f5"></path><path id="freepik--cloud--inject-173" d="M486.9,48.25a8.16,8.16,0,0,0-2.76-.5c-.89-.08-1.18-.25-1.35-.45A6.57,6.57,0,0,0,474.88,45a5.07,5.07,0,0,0-6-3.38c.1-2.78-3.45-5.77-6.64-6.45s-5.73-.37-7.48,1.64c-1.86-3.65-9.19-4.68-13.16-2.75-2.28,1.11-4.21,2.25-5.16,4.34a8.74,8.74,0,0,0-.85,4.15,7.33,7.33,0,0,0-6.71-.93c-2.22.86-2.39,2.54-2.5,4.25a7.82,7.82,0,0,0-4.05-.08c-1.4.42-2.21,1.52-2,2.41-1.11-.06-3.75.83-3.45,2s3.36,1.19,4.49,1.14a20.48,20.48,0,0,0,3.15-.49,5,5,0,0,0,1.65.31c1.92,0,2.73-.84,3-1.55.94,2,4.27,3.48,6.63,4.08,4.44,1.14,10.73.44,13.47-2.88a4.82,4.82,0,0,0,1.32,1.62,7.67,7.67,0,0,0,4.11,1.66c1.82.17,6.72.41,8.1-2.49,1,1.92,5.33,2.8,8.65,2.33a13.2,13.2,0,0,0,3.71-1.12,20.69,20.69,0,0,0,2.13-1.28,1.77,1.77,0,0,1,1.82-.12,10.9,10.9,0,0,0,7.24,0C488.25,50.59,488.64,49,486.9,48.25Z" style="fill:#f5f5f5"></path><path id="freepik--cloud--inject-173" d="M119,39.5a6.49,6.49,0,0,0-2.11-.39c-.69,0-.9-.19-1-.33a5,5,0,0,0-6-1.79,3.88,3.88,0,0,0-4.57-2.58c.07-2.13-2.64-4.42-5.09-4.94s-4.38-.29-5.72,1.25c-1.43-2.79-7-3.58-10.07-2.1-1.75.85-3.23,1.72-4,3.32a6.64,6.64,0,0,0-.66,3.18,5.61,5.61,0,0,0-5.13-.72c-1.7.66-1.83,2-1.91,3.25a5.85,5.85,0,0,0-3.1,0c-1.08.31-1.7,1.16-1.55,1.84-.85,0-2.87.64-2.64,1.53s2.57.91,3.44.88a16.89,16.89,0,0,0,2.41-.38,4,4,0,0,0,1.26.24,2.31,2.31,0,0,0,2.33-1.19c.71,1.51,3.27,2.66,5.07,3.12,3.4.87,8.22.34,10.31-2.2a3.8,3.8,0,0,0,1,1.23A5.85,5.85,0,0,0,94.35,44c1.4.13,5.14.31,6.2-1.91.75,1.48,4.08,2.15,6.62,1.79A10.76,10.76,0,0,0,110,43a16.73,16.73,0,0,0,1.63-1,1.38,1.38,0,0,1,1.4-.1,8.29,8.29,0,0,0,5.54,0C120,41.29,120.29,40.11,119,39.5Z" style="fill:#f5f5f5"></path><path id="freepik--cloud--inject-173" d="M462.26,86a5.9,5.9,0,0,0-1.9-.35c-.62-.05-.81-.17-.93-.3A4.54,4.54,0,0,0,454,83.77a3.48,3.48,0,0,0-4.11-2.33c.06-1.91-2.38-4-4.58-4.44s-4-.26-5.15,1.13c-1.29-2.52-6.34-3.23-9.07-1.9-1.57.77-2.9,1.55-3.56,3a6.06,6.06,0,0,0-.59,2.87,5,5,0,0,0-4.62-.65c-1.53.6-1.64,1.75-1.72,2.93a5.27,5.27,0,0,0-2.79-.05c-1,.28-1.52,1-1.39,1.65-.77,0-2.59.58-2.38,1.39s2.32.81,3.09.78a13.45,13.45,0,0,0,2.18-.34,3.24,3.24,0,0,0,1.13.22c1.32,0,1.88-.58,2.09-1.07.65,1.36,2.95,2.39,4.58,2.81,3.06.78,7.39.31,9.27-2a3.44,3.44,0,0,0,.92,1.11A5.29,5.29,0,0,0,440.11,90c1.25.11,4.63.27,5.58-1.72.67,1.32,3.68,1.93,6,1.61a9.63,9.63,0,0,0,2.56-.78,13.93,13.93,0,0,0,1.47-.88,1.22,1.22,0,0,1,1.25-.08,7.49,7.49,0,0,0,5,0C463.19,87.65,463.46,86.58,462.26,86Z" style="fill:#f5f5f5"></path></g><g id="freepik--Plants--inject-173"><g id="freepik--plants--inject-173"><path d="M56.11,247.91c2.06,3.62,6.62,8.64,9.82,13.89,3.91,6.39,6.71,15,6.79,28.41q4.23-4,9-7.86l.19-.16a120.65,120.65,0,0,0-2-24.28C77.57,244.56,69.31,231.76,61.43,231,54.08,230.21,50.94,238.85,56.11,247.91Z" style="fill:#e0e0e0"></path><path d="M59.83,236.48c9.46,7.55,18.78,27.25,18,49.47l1-.91c.54-22.15-8.84-41.74-18.33-49.29a.46.46,0,0,0-.66.06A.48.48,0,0,0,59.83,236.48Z" style="fill:#fff"></path><path d="M46.16,264.44c1.41,4.65,10.4,9.54,16.16,17.3a41.15,41.15,0,0,1,6.41,12.41q2.94-3,6.2-6c-.89-12.54-6.12-20.53-10.75-26.21a24.1,24.1,0,0,0-8-5.42C48.07,253.93,44.46,258.84,46.16,264.44Z" style="fill:#ebebeb"></path><path d="M52.66,262.48C58.36,265,69,274.16,71.44,291.43l.83-.8c-2.58-17.18-13-26.25-19.22-29a.47.47,0,0,0-.63.24A.48.48,0,0,0,52.66,262.48Z" style="fill:#fff"></path></g><g id="freepik--plants--inject-173"><path d="M439.34,247.88c-2.06,3.63-6.62,8.65-9.82,13.89-3.91,6.4-6.71,15-6.79,28.41q-4.23-4-9-7.85l-.19-.16a120.65,120.65,0,0,1,2-24.28c2.33-13.35,10.59-26.15,18.47-26.95C441.37,230.19,444.52,238.83,439.34,247.88Z" style="fill:#e0e0e0"></path><path d="M435.62,236.45c-9.46,7.55-18.78,27.25-18,49.47l-1-.9c-.54-22.15,8.84-41.74,18.33-49.3a.47.47,0,1,1,.59.73Z" style="fill:#fff"></path><path d="M449.29,264.41c-1.41,4.65-10.4,9.55-16.16,17.31a41.15,41.15,0,0,0-6.41,12.41q-2.94-3-6.2-6c.89-12.54,6.12-20.53,10.75-26.21a24.14,24.14,0,0,1,8-5.43C447.38,253.91,451,258.81,449.29,264.41Z" style="fill:#ebebeb"></path><path d="M442.79,262.45c-5.7,2.53-16.37,11.69-18.78,29l-.83-.81c2.58-17.17,13-26.25,19.23-29a.46.46,0,0,1,.62.24A.46.46,0,0,1,442.79,262.45Z" style="fill:#fff"></path></g></g><g id="freepik--Shadows--inject-173"><path id="freepik--Shadow--inject-173" d="M417.62,321.17c17.84-10.3,17.84-27,0-37.29s-46.75-10.3-64.59,0-17.83,27,0,37.28S399.79,331.46,417.62,321.17Z" style="fill:#e0e0e0"></path><path id="freepik--shadow--inject-173" d="M77.23,321.19c-17.83-10.3-17.83-27,0-37.29s46.75-10.3,64.58,0,17.83,27,0,37.29S95.07,331.49,77.23,321.19Z" style="fill:#e0e0e0"></path></g><g id="freepik--speech-bubble-3--inject-173"><g id="freepik--speech-bubble--inject-173"><path d="M383.77,439.18c-15.7,5.36-32.31.54-40.85-7.44,48.36-29.55,47.48-76.15-2.63-105.08-51-29.45-133.72-29.45-184.73,0s-51,77.2,0,106.65c42.18,24.35,106,28.55,155.71,12.62C328.76,455.19,361,456.73,383.77,439.18Z" style="fill:#BA68C8"></path><path d="M121,362.06v0s0,0,0,0Zm25.87,57.79c-28.61-18.76-30-46.4-26.31-56.68-9.64,24.44,2,51.11,35,70.14C195.89,456.59,256,461.43,304.63,447.9V437.24C246.32,454.74,177.89,440.18,146.89,419.85Zm196,11.89C369.6,415.44,381.28,394,378,373.1c-.55,11.06-6.73,31.84-43.44,51.32v27.95c16,1.48,34.57-1.9,49.22-13.19C368.07,444.54,351.46,439.72,342.92,431.74Z" style="opacity:0.15"></path><path d="M357.86,439.77a36.73,36.73,0,0,1-14.94-8c19.69-12,31.21-26.89,34.58-42.22-3.51-16-15.91-31.51-37.21-43.81-51-29.46-133.72-29.46-184.73,0-21.3,12.29-33.7,27.78-37.21,43.8,3.51,16,15.91,31.5,37.21,43.8,42.18,24.35,106,28.55,155.71,12.62,8.65,4.58,20.91,7.27,33.84,6.69C345.11,452.62,353.55,443.64,357.86,439.77Z" style="fill:#37474f"></path><path d="M357.86,439.77a36.73,36.73,0,0,1-14.94-8c19.69-12,31.21-26.89,34.58-42.22a47.61,47.61,0,0,0-1.64-5.69c-3.91,11.34-14.4,26.31-41.31,40.59v27.95l.21,0c.9.08,1.81.14,2.73.19h.12c1,.05,2,.09,3,.1h.28c.86,0,1.72,0,2.58,0l.71,0,1,0C345.31,452.41,353.6,443.59,357.86,439.77Z" style="fill:#263238"></path><path d="M146.89,419.85c-16.48-11.37-23.93-25.31-26.54-37a46.69,46.69,0,0,0-2,6.64c3.51,16,15.91,31.5,37.21,43.8C195.89,456.59,256,461.44,304.63,447.9h0V437.24C246.32,454.74,177.89,441.24,146.89,419.85Z" style="fill:#263238"></path><path d="M383.77,439.18c-15.7,5.36-32.31.54-40.85-7.44v20.95C356.78,452.47,371.61,448.54,383.77,439.18Z" style="fill:#BA68C8"></path><path d="M342.92,443.56v9.13c13.86-.22,28.69-4.15,40.85-13.51C372.45,447.86,352.53,449,342.92,443.56Z" style="opacity:0.2"></path></g></g><g id="freepik--speech-bubble-2--inject-173"><g id="freepik--speech-bubble--inject-173"><g id="freepik--speech-bubble--inject-173"><path d="M322.83,55A28.73,28.73,0,0,1,336,71.57l.77,3.2a28.82,28.82,0,0,1-55.48,14.89l-.93-3.17A28.81,28.81,0,0,1,322.83,55Z" style="fill:#fff"></path><path d="M281.29,64.37a31.28,31.28,0,0,0,51.28,35.46l9.6,1.47a1.82,1.82,0,0,0,1.69-2.94l-6.11-7.56a31.28,31.28,0,0,0-56.46-26.43ZM322.79,55A28.8,28.8,0,0,1,336,71.52l.78,3.2a28.82,28.82,0,0,1-55.46,15l-.94-3.16A28.82,28.82,0,0,1,322.79,55Z" style="fill:#455a64"></path></g><path d="M317.71,83.72,314.1,80l3.61-3.77,3.3-3.44a4.11,4.11,0,0,0-5.93-5.68l-6.66,7-6.67-7a4.11,4.11,0,0,0-5.93,5.68l3.3,3.44L302.73,80l-3.61,3.77-3.3,3.44a4.11,4.11,0,0,0,5.93,5.69l6.67-7,6.66,7A4.15,4.15,0,0,0,318,94.1a4.1,4.1,0,0,0,3-6.94Z" style="fill:#BA68C8"></path></g></g><g id="freepik--speech-bubble-1--inject-173"><g id="freepik--speech-bubble--inject-173"><g id="freepik--speech-bubble--inject-173"><path d="M173.07,55a28.69,28.69,0,0,0-13.15,16.59l-.78,3.21a28.81,28.81,0,0,0,55.48,14.88l.93-3.16A28.81,28.81,0,0,0,173.07,55Z" style="fill:#fff"></path><path d="M171.9,52.85a31.32,31.32,0,0,0-13.75,38L152,98.39a1.81,1.81,0,0,0,1.69,2.93l9.61-1.47a31.28,31.28,0,1,0,8.56-47Zm40.59,12.76a28.74,28.74,0,0,1,3,21l-.94,3.17a28.82,28.82,0,0,1-55.46-15l.79-3.21a28.81,28.81,0,0,1,52.56-5.93Z" style="fill:#455a64"></path></g><g id="freepik--Check--inject-173"><path d="M183.51,95.29a4.12,4.12,0,0,1-3-1.3l-9.3-9.93a4.1,4.1,0,1,1,6-5.61l6,6.45,14.3-18.11A4.1,4.1,0,1,1,204,71.88L186.73,93.73a4.09,4.09,0,0,1-3,1.56Z" style="fill:#BA68C8"></path></g></g></g><g id="freepik--character-2--inject-173"><g id="freepik--Character--inject-173"><g id="freepik--Bottom--inject-173"><path d="M414.76,291.23c-.81-11.14.45-19.68-.48-37.07-.06-3.18-.16-6.5-.32-9.69H393c1.27,5.68,2.53,11.36,3.59,16.28,2.55,14.25,6.31,24.39,7,31.52.2,1.7,2.12,18.42,2.92,22.25s9.14,3.92,9.68-2.66C416.45,307.48,414.92,293.33,414.76,291.23Z" style="fill:#b16668"></path><path d="M361.73,279.14c.29,4.42-.09,6.16-1.82,8-3.63,3.89-8.88,7.59-13.42,11,.65,1.74,6.12,1.67,8.82.35a68.53,68.53,0,0,0,10.08-6.43c3.73-2.76,8.5-5,8.56-9.18a3.46,3.46,0,0,1,.13-.75c.06-2.19,3-31.2,4.3-43.41H357.23C358.44,257.1,361.68,278.37,361.73,279.14Z" style="fill:#b16668"></path><path d="M338.76,302.58a3.58,3.58,0,0,0,.64,3.63c1.43,1.27,5.66,3.36,11.28,2.7s8.68-2.37,10.95-4.23,5.45-4.47,8-5c2.37-.49,4.94-1.53,5.7-2.26s.7-4,.7-4Z" style="fill:#263238"></path><path d="M374.19,280.94s.43,0,.56.77c.17.9.33,3.5.68,5a25.92,25.92,0,0,1,.47,7.88c-.33,1.66-4.19,2.78-6.66,3.69a31.09,31.09,0,0,0-8,4.94,23.1,23.1,0,0,1-11.9,4.28c-5.59,0-9.19-1.53-10.29-3.55-1.35-2.5-.25-3.92,6.2-6.83,1.22-.55,5.52-3,7-3.93a32.25,32.25,0,0,0,4.41-3.21,25.58,25.58,0,0,0,2-1.92,8.6,8.6,0,0,0,1.65-2.06c.07-.16.12-.36.19-.54a9.58,9.58,0,0,0,.44-1.5c.1-.53.18-1.31.69-1.62a4.28,4.28,0,0,1,2.3-.25,17.14,17.14,0,0,1,2.47.38c.94.22,2,.32,2.59,1.21a4.76,4.76,0,0,1,.5,2.33c0,.38,0,.75,0,1.13,0,.16-.07.45.15.38s.46-.62.54-.81c.19-.41.3-.86.5-1.27a6.85,6.85,0,0,1,.82-1.35,6.21,6.21,0,0,1,1-1,9.5,9.5,0,0,0,1.11-.7A2.48,2.48,0,0,0,374.19,280.94Z" style="fill:#37474f"></path><path d="M344.2,297.57c8.08.64,10.58,5.66,10.89,8.76a18.86,18.86,0,0,1-5.76,1.14c-5.59,0-9.42-1.53-10.51-3.55C337.54,301.56,338.44,299.68,344.2,297.57Z" style="fill:#fafafa"></path><path d="M356.33,297.78a.43.43,0,0,0,.25-.09.39.39,0,0,0,.06-.55,9.5,9.5,0,0,0-7.28-3,.39.39,0,1,0,.07.78,8.82,8.82,0,0,1,6.59,2.67A.39.39,0,0,0,356.33,297.78Z" style="fill:#f0f0f0"></path><path d="M359.83,295.79a.4.4,0,0,0,.31-.64,9.47,9.47,0,0,0-7.28-3,.4.4,0,0,0,.08.79,8.84,8.84,0,0,1,6.59,2.67A.37.37,0,0,0,359.83,295.79Z" style="fill:#f0f0f0"></path><path d="M363.08,293.5a.33.33,0,0,0,.25-.08.41.41,0,0,0,.07-.56,9.56,9.56,0,0,0-7.29-3,.39.39,0,0,0-.35.43.39.39,0,0,0,.43.36,8.77,8.77,0,0,1,6.59,2.67A.41.41,0,0,0,363.08,293.5Z" style="fill:#f0f0f0"></path><path d="M366.27,291.22a.46.46,0,0,0,.25-.08.41.41,0,0,0,.07-.56c-1.53-2-5-3.3-8-3a.39.39,0,0,0-.35.43.4.4,0,0,0,.43.36c2.64-.26,5.9,1,7.25,2.71A.39.39,0,0,0,366.27,291.22Z" style="fill:#f0f0f0"></path><path d="M403.8,317.5c.22,3.81.81,6.34,2.17,8.58s3.91,2.94,6.49,2.29,5.9-2.41,6.64-5.7,1.18-5.55.59-9.09Z" style="fill:#263238"></path><path d="M414.67,289.87c1.07.08,1.38,5.21,2,10.34.66,5.49,2.3,7.77,2.89,12.28.67,5.15-.18,7.45-2,10.56s-8.19,6.17-11.34,1.71c-2.57-3.64-2.67-7.67-2.44-12.81a114.23,114.23,0,0,0-.34-13c-.21-3.86-1.06-7.75-.14-8.18.07.57.14,1.29.22,1.85a8.87,8.87,0,0,0,.34,2.05c.11.29.35.59.45.12a3.43,3.43,0,0,0,0-1c-.16-1.42.56-1.53.94-1.64a45.67,45.67,0,0,1,4.95-.7c.81-.06,3.62-.18,4,.28a3.09,3.09,0,0,1,.36,1.49c.09.78.27,1.34.3,1.1,0-.55-.06-2-.07-2.35s-.07-.78-.08-1.12S414.7,290.2,414.67,289.87Z" style="fill:#37474f"></path><path d="M419.85,315.47a12.83,12.83,0,0,1-2,7.83c-1.81,3.11-8.71,6.18-11.86,1.72-1.56-2.22-2-4.85-2.2-7.52C405.69,314.06,416.88,312.54,419.85,315.47Z" style="fill:#fafafa"></path><path d="M406.13,311.9l.13,0a18.11,18.11,0,0,1,9.77-.95.4.4,0,0,0,.48-.3.4.4,0,0,0-.3-.47,18.53,18.53,0,0,0-10.29,1,.39.39,0,0,0-.19.52A.41.41,0,0,0,406.13,311.9Z" style="fill:#f0f0f0"></path><path d="M415.79,307.07a.39.39,0,0,0,.34-.26.41.41,0,0,0-.25-.51c-4.78-1.61-10.08.82-10.28.92a.4.4,0,0,0-.17.53.4.4,0,0,0,.54.17s5.21-2.38,9.66-.87A.3.3,0,0,0,415.79,307.07Z" style="fill:#f0f0f0"></path><path d="M415.62,303.45a.39.39,0,0,0,.1-.76c-5.26-1.88-10.29.77-10.48.88a.41.41,0,0,0-.13.55.4.4,0,0,0,.54.13c.05,0,4.91-2.57,9.8-.82A.35.35,0,0,0,415.62,303.45Z" style="fill:#f0f0f0"></path><path d="M415.36,299.89a.38.38,0,0,0,.33-.25.38.38,0,0,0-.23-.51c-4.92-1.85-10.34.87-10.54,1a.4.4,0,0,0,.39.69c.05,0,5.3-2.66,9.88-.94A.32.32,0,0,0,415.36,299.89Z" style="fill:#ebebeb"></path><path d="M403.06,144.22c4.8,8.73,8.35,15.88,8.84,41.86s.4,33.26.5,36.39,2.06,8.66,2.67,24.17c.48,12-.31,27.83-.31,27.83s-1.5,2.55-7.4,3.08c-5.44.49-7.74-1.63-7.74-1.63S393,251.86,391,242.57s-8.06-39.86-8.06-39.86l-3.56,24.79A170.64,170.64,0,0,1,378,251.21c-1.66,13.53-2.34,20.46-2.34,20.46a22.14,22.14,0,0,1-8.43,1.61c-4.66-.07-6.86-1.39-6.86-1.39a473.63,473.63,0,0,1-4.86-51.11c-.53-15.33,1.58-53.19,3-76.4Z" style="fill:#37474f"></path><path d="M382.9,202.71,378,173.21s-10.26-.73-16-6.7c2.31,6.34,10.73,10.77,14.43,11.66l4.34,24.2-1.51,25.13Z" style="fill:#263238"></path><path d="M393.21,148.54a36.84,36.84,0,0,1,3.33,7,70.26,70.26,0,0,1,2.22,7.47c.58,2.53,1.07,5.07,1.4,7.64a50.38,50.38,0,0,1,.51,7.77c-.61-2.53-1.19-5-1.76-7.54s-1.14-5-1.74-7.5-1.21-5-1.84-7.46S394,151,393.21,148.54Z" style="fill:#263238"></path><path d="M396.6,149.48a27.32,27.32,0,0,1,3.51,3.94,38,38,0,0,1,2.85,4.43,33.65,33.65,0,0,1,2.17,4.82,21.05,21.05,0,0,1,1.18,5.15L404,163.17c-.8-1.52-1.59-3-2.42-4.54s-1.66-3-2.49-4.52S397.37,151.08,396.6,149.48Z" style="fill:#263238"></path><path d="M391,180.52c1.12,8,2.13,16.09,3.14,24.14s2.09,16.07,3.57,24,3,15.94,4.45,23.92,2.77,16,4,24q-2.79-11.87-5.25-23.77c-1.67-7.95-3.25-15.88-4.81-23.87s-2.44-16.1-3.22-24.18S391.45,188.62,391,180.52Z" style="fill:#263238"></path><path d="M364.36,177.91,363,199.07c-.2,3.53-.43,7.05-.59,10.57s-.37,7.06-.31,10.54.29,7,.47,10.55l.53,10.59q.54,10.58.84,21.19-1.25-10.55-2.11-21.11c-.58-7.05-1.12-14.08-1.36-21.2,0-7.15.63-14.17,1.26-21.23S363.27,184.9,364.36,177.91Z" style="fill:#263238"></path></g><g id="freepik--Top--inject-173"><path d="M369.51,99.68c-6.67,1-9.1,2.67-11.82,5.45-3.58,3.66-6.07,9.36-9.62,17-3.46,7.39-5.88,18.68-3.22,21.79S355,146.67,355,146.67l3.47-8.17Z" style="fill:#e0e0e0"></path><path d="M359.43,131.73a21.22,21.22,0,0,0-11.36,4.48s2.05-5.08,11.54-6.87Z" style="opacity:0.1"></path><path id="freepik--Chest--inject-173" d="M408.17,155.46c-.72-3-2.87-12.41-3.08-14.17-1.1-9.21,1.65-16.82,2.31-21.27,1.45-9.7-2.4-17.82-4.66-19.73,0,0-2.56-.63-4.71-1-1.71-.31-3-.51-5.27-1-5.6-1.36-11.72,0-13.85.19a23.3,23.3,0,0,0-4.37.31c-1.51.35-5,1-5,1a26.08,26.08,0,0,0-8.66,8.89c-2.46,4.4-2.86,7.5-3.29,16.19-.6,12-.51,23.1-.32,30.68C367.17,161.54,395.36,162.92,408.17,155.46Z" style="fill:#f0f0f0"></path><path id="freepik--Hair--inject-173" d="M391.91,92.55c3.36-4.85,5.4-6,7.39-10.12s4.05-8.4,3.12-12.88c-.36-1.72-.44-2.86-1.94-4.44a6.13,6.13,0,0,0-2-1.69c-.06,0-.4-1.52-.48-1.7A7.58,7.58,0,0,0,397,60a12.8,12.8,0,0,0-3.51-3,21.71,21.71,0,0,0-10.67-2.91A20.21,20.21,0,0,0,374,56c-1.47.66-3.13,1-4.65,1.56a16.24,16.24,0,0,0-4.49,2.55,6.21,6.21,0,0,0-1.78,2.2,3.18,3.18,0,0,0,0,2.76c.64,1.16,2.19,1.83,2.31,3.16a3.92,3.92,0,0,1-.57,1.9A2.27,2.27,0,0,0,364.7,72a2.55,2.55,0,0,0,1,.89,2,2,0,0,1,.77-2.39,1.64,1.64,0,0,0,2.11,2.14c1.24-.46,1.91.9,2.41,2.12a13.64,13.64,0,0,1,.62,3.89,24.38,24.38,0,0,0,.75,4,7,7,0,0,0,.83,2.14c1.11,1.7,3.36,2.24,5.11,3,2.05.89,4.12,1.76,6.21,2.58,1.65.65,3.32,1.29,5,1.8C390.16,92.36,391.29,92.87,391.91,92.55Z" style="fill:#263238"></path><path d="M388.68,42.21a3,3,0,0,1,1.66-.14,14.29,14.29,0,0,0,1.9.48c1.47.07,2.61-1.31,4-1.66a4.09,4.09,0,0,1,2.78.43c1.45.74,3.19,2,3.45,3.76a10.41,10.41,0,0,0,.22,2,2.13,2.13,0,0,0,1.94,1.4c.44,0,.87-.13,1.3-.13a2.3,2.3,0,0,1,2.24,2.14,1.78,1.78,0,0,0-2.83.2,3,3,0,0,1,3.2,3.43,5.88,5.88,0,0,0-.34,1.42,2.18,2.18,0,0,0,1.16,1.67c.6.38,1.29.6,1.89,1a4.29,4.29,0,0,1,.72,6.74,2,2,0,0,0-1.24-2.61c.64,1.22.72,3-.41,3.75-.83.58-2.21.63-2.43,1.61A3.28,3.28,0,0,0,408.1,69a2.66,2.66,0,0,1-2.05,3c-.67.12-1.36,0-2,.13a9,9,0,0,0-2.17,1.23,4.46,4.46,0,0,1-5.28-.87c-.94-1-1.37-2.54-2.53-3.34s-2.57-.69-3.84-1.12a4.92,4.92,0,0,1-2.74-2.35c-.31-.59-.5-1.24-.81-1.84a5.35,5.35,0,0,0-5.05-2.83c-.84.07-1.66.33-2.51.34a4.06,4.06,0,0,1-1.73-7.74,3,3,0,0,0-2.75,1.09,2.64,2.64,0,0,1,1.25-2.8A6.4,6.4,0,0,1,379,51a2.33,2.33,0,0,1-1.3-3,3.54,3.54,0,0,1,2.73-2.1c1.22-.23,2.77-.12,3.37-1.2.36-.64.42-1.34.83-2a4.2,4.2,0,0,1,.74-.95c.12-.1.88-.46.9-.54-.13.49,0,1.66.65,1.84s1-.62,1.53-.85Z" style="fill:#263238"></path><g id="freepik--Head--inject-173"><path d="M392.67,95.8c0-1.57.3-9.44.3-9.44.06.59,2.91,2.21,5.49-.79s2.79-6.24,1.27-8.31c-1.68-2.29-5.44-2.2-7,1.5-1.13,0-2.94-.21-2.36-6.07,0-7.07-6.86-12.93-12.64-8-2.24-4-7.45-2.4-9.22,1.44-1,2.41-1.15,2.28-.68,6.84.08.77-1,2.73-.86,6.15.19,6.6,1.1,10.16,4.34,12.71,1.42,1.12,4,1.69,7.14,1.46l0,2.53h0c-.07,1.31,0,1.88-1.24,2.29-.86.28-2.58.64-2.58.64s-3.72,3.48,4.41,4.64c12.14,1.74,18.81-4.1,18.81-4.1s-.82-.14-2.89-.53S392.67,97.37,392.67,95.8Z" style="fill:#b16668"></path><path d="M373.4,70.82l-3.17-1.59a1.7,1.7,0,0,0,.72,2.36A1.86,1.86,0,0,0,373.4,70.82Z" style="fill:#263238"></path><path d="M379.7,71.08l3.23-1.57a1.72,1.72,0,0,1-.76,2.38A1.9,1.9,0,0,1,379.7,71.08Z" style="fill:#263238"></path><path d="M372.46,74.86a1.52,1.52,0,0,1-1.38,1.6,1.42,1.42,0,0,1-1.57-1.32,1.53,1.53,0,0,1,1.38-1.6A1.44,1.44,0,0,1,372.46,74.86Z" style="fill:#263238"></path><path d="M383.14,75.22a1.53,1.53,0,0,1-1.38,1.6,1.44,1.44,0,0,1-1.57-1.32,1.52,1.52,0,0,1,1.38-1.6A1.42,1.42,0,0,1,383.14,75.22Z" style="fill:#263238"></path><polygon points="371.7 79.45 376.35 81.72 377.38 72.73 371.7 79.45" style="fill:#9a4a4d"></polygon><path d="M378.47,93.25c5.62-.52,10.1-1.9,12.51-6.39,0,0,0,3.23-4.11,6-3.08,2.05-8.37,2.35-8.37,2.35Z" style="fill:#9a4a4d"></path><path d="M380.87,83a1.05,1.05,0,0,0-.87,0,3.86,3.86,0,0,0-.87.35,3.41,3.41,0,0,0-1.29,1.18.25.25,0,0,0,0,.25s.12.14.18.08a4.84,4.84,0,0,1,1.34-1,4.59,4.59,0,0,1,.81-.29c.14,0,.29,0,.43-.1a.51.51,0,0,0,.17-.07c.07,0,.09-.07.13-.14A.17.17,0,0,0,380.87,83Z" style="fill:#9a4a4d"></path><path d="M374.57,69.82a1.56,1.56,0,0,0-.72-.4c-.11,0-.11.17,0,.21a1.38,1.38,0,0,1,.56.42.86.86,0,0,1,0,.57,1.89,1.89,0,0,1-.28.5c0,.06-.05.12-.08.17l-.09.12a1.07,1.07,0,0,1-.25.22s0,.1,0,.09a1.8,1.8,0,0,0,.79-.26,1.06,1.06,0,0,0,.37-.72A1.1,1.1,0,0,0,374.57,69.82Z" style="fill:#9a4a4d"></path></g><path d="M368.18,134c-1.59-3.18-3.75-7.23-4.75-9.51s-1.2-2.65-2.92-3.85a47,47,0,0,0-5-3.13c-.88-.47-1.14.59-.54,1.94.54,1.19,3.26,2.83,3.26,2.83s-2.44-.22-3.56-.24a10.13,10.13,0,0,0-3.12,1c-1.27.5-1.39.91-1.09,1.32s.85.76,2.12.65,2.44-.32,2.44-.32l2.75.35.29.38a33.29,33.29,0,0,0-3.35.51,7.32,7.32,0,0,0-2.95,1.32c-1.15.7-1.86,1-1.92,1.34s.06,1.14,1.57,1.05a7.61,7.61,0,0,0,2.93-.94l3.22-.33,1.48,1.3s-1.82.07-2.88.17a13.21,13.21,0,0,0-3.41,1c-.43.25.16,1.21,1,1.48s3-.48,4.19-.24a25.31,25.31,0,0,1,3.23,1.12Z" style="fill:#b16668"></path><path d="M368.18,134c-.13-.25-.57-1.11-.7-1.38A64.91,64.91,0,0,1,361,132a13.83,13.83,0,0,0-4,0h0a2.81,2.81,0,0,1,.4,0c1.17.24,3.74,1.16,3.74,1.16Z" style="fill:#9a4a4d"></path><path d="M363.69,127.8a11.52,11.52,0,0,1-1.26-1.6c-.39-.56-.71-1.16-1.08-1.72A4.35,4.35,0,0,0,360,123a6.4,6.4,0,0,0-1.83-.8,4.76,4.76,0,0,1,2,.6,4.46,4.46,0,0,1,1.45,1.48c.35.59.68,1.18,1,1.76S363.32,127.23,363.69,127.8Z" style="fill:#9a4a4d"></path><path d="M364,129.9a10.07,10.07,0,0,1-1.55-1.13c-.49-.41-.94-.86-1.41-1.29s-.9-.9-1.35-1.32a2.55,2.55,0,0,0-1.65-.79,2.28,2.28,0,0,1,1.8.6c.52.4.94.87,1.42,1.29C362.17,128.15,363.05,129.05,364,129.9Z" style="fill:#9a4a4d"></path><path d="M362.28,131.16c-.57-.27-1-.66-1.57-.94a4.48,4.48,0,0,0-.8-.38,6.09,6.09,0,0,0-.89-.22,2.34,2.34,0,0,1,1,0,3.07,3.07,0,0,1,.89.33A6.16,6.16,0,0,1,362.28,131.16Z" style="fill:#9a4a4d"></path><path d="M395.1,139.45c-1.57-.3-4-.72-7.41-1.22-2.92-.43-15.24-3.28-18.19-3.57l-10,6.74c2.62,1.69,9.72,4.74,13.4,6.16,5.27,2,11.34,4.35,16.76,6.18C389.69,149,392.27,142.24,395.1,139.45Z" style="fill:#b16668"></path><path d="M369.5,134.66l-10,6.74c2.62,1.69,9.72,4.74,13.4,6.16l3.45,1.32c4.84-1.7,11-4.9,16.72-6.84l.13-.11a12.46,12.46,0,0,1,1.88-2.48c-1.57-.3-4-.72-7.41-1.22C384.77,137.8,372.45,135,369.5,134.66Z" style="fill:#9a4a4d"></path><path d="M414.22,112.87c-.66-5.91-4.35-11.76-11.48-12.58-4.91,3.45-5.6,11.21-5.27,21.14l1.33,18.11a18.62,18.62,0,0,1-3.7-.09c-2.83,2.79-6,9.78-6,14.54a79.42,79.42,0,0,0,13.75,2.2c6,.23,11.24.18,11.89-5.36,1.06-9.15.76-14.28.49-22.25A148.64,148.64,0,0,0,414.22,112.87Z" style="fill:#e0e0e0"></path><path d="M393.09,142a23,23,0,0,1,4.1-.59c3.91-.38,9,1,10.06,3.48,0,0-1.28-4.24-8.45-5.39a29.51,29.51,0,0,1-3.95.17A16.06,16.06,0,0,0,393.09,142Z" style="opacity:0.1"></path><path d="M386.68,142.14c-4.11,1-19.66,5.18-33.9,4.5-1-1.73-.86-5-.4-8a12.16,12.16,0,0,1,3.19-6.46,9,9,0,0,1,1.82-.19c11.19,1.69,18.91.79,30.46,2,4.74.5,10.82,3.89,10.82,3.89l.13,1.6S390.79,141.14,386.68,142.14Z" style="fill:#b16668"></path></g></g></g><g id="freepik--character-1--inject-173"><g id="freepik--character--inject-173"><g id="freepik--bottom--inject-173"><path d="M135,263.17c0,10-.75,18.81.18,25.21.08.54-5.29,2.64-9,2s-4.64-1.92-4.64-2.3c0-1.34-1.34-3.13-1.48-4.46-.87-8.42-2.13-14.45-2.77-20.44Z" style="fill:#ffa8a7"></path><path d="M157.87,303.92c.26,0,.77,2.64-.59,3.84-1.56,1.38-6.24,3.75-12.58,3.27s-8.14-1.58-10.75-3.44-5-3.83-7.9-4.29c-2.67-.42-6.74-1.24-7.63-2s-.91-4.14-.91-4.14Z" style="fill:#263238"></path><path d="M119.85,282.34s-.9.07-1,.86c-.15.95-.24,3.69-.59,5.24-.48,2.17-1,8.2-.55,9.93s5.95,2.56,8.75,3.42a26.64,26.64,0,0,1,7.92,4.22,20.22,20.22,0,0,0,11.82,3.46c4.86-.25,10.27-2,11.43-4.13,1.43-2.68,1.55-5.19-5.79-8-1.39-.53-5.7-2.65-7.37-3.54a30.75,30.75,0,0,1-5.18-3.34c-.66-.54-1.32-1.09-1.92-1.69a5.44,5.44,0,0,1-1.08-1.86,26,26,0,0,1-.65-3.85.58.58,0,0,0-.14-.33.74.74,0,0,0-.33-.17,9.17,9.17,0,0,0-3.54,0,15.45,15.45,0,0,0-3.52.91,3.06,3.06,0,0,0-1.59,1,2.33,2.33,0,0,0-.26,1.27,9.57,9.57,0,0,1,0,1.31.77.77,0,0,1-.17.44c-.23.24-.64.07-.85-.1a17.52,17.52,0,0,1-2-2.09c-.36-.38-1.9-.56-2.34-.85s-.33-.39-.69-.7S119.9,282.89,119.85,282.34Z" style="fill:#37474f"></path><path d="M134.35,306a35.16,35.16,0,0,0-3.45-2.25h0s7.8,2.49,11.13.15c2.15-1.5,1-3.17.94-3.71s5.26-3.14,7.4-3.47h0c.61.28,1.12.51,1.44.63,7.34,2.8,7.22,5.31,5.79,8-1.16,2.16-5,4-11.34,4.27A20.85,20.85,0,0,1,134.35,306Z" style="fill:#455a64"></path><path d="M142.31,298.62c4.56,1.47,2.68,2.34,1.43,2.56s-7.72-2.89-12.47-6.09c-5-3.33-8.73-6.9-10.57-8.12-.68-.46-1.42-1-2.08-1.55.07-.93.13-1.77.2-2.22.13-.79,1.12-1.07,1.12-1.07l.29,1.63a5,5,0,0,0,1.38.67,3.62,3.62,0,0,1,1.58.92,17.52,17.52,0,0,0,2,2.09C129.35,291.91,137.76,297.14,142.31,298.62Z" style="fill:#263238"></path><path d="M143.4,300.58a.44.44,0,0,1-.29-.08.39.39,0,0,1-.09-.58,11.11,11.11,0,0,1,8.08-3.4.42.42,0,0,1,.41.44.42.42,0,0,1-.47.39,10.24,10.24,0,0,0-7.31,3.07A.44.44,0,0,1,143.4,300.58Z" style="fill:#f0f0f0"></path><path d="M139.39,298.7a.51.51,0,0,1-.29-.08.4.4,0,0,1-.1-.58,11.06,11.06,0,0,1,8-3.57.42.42,0,0,1,.42.43.43.43,0,0,1-.46.4,10.24,10.24,0,0,0-7.23,3.22A.44.44,0,0,1,139.39,298.7Z" style="fill:#f0f0f0"></path><path d="M135.67,296.51a.44.44,0,0,1-.29-.08.41.41,0,0,1-.09-.58,11.11,11.11,0,0,1,8.08-3.4.42.42,0,0,1,.41.44.42.42,0,0,1-.47.39,10.28,10.28,0,0,0-7.31,3.06A.4.4,0,0,1,135.67,296.51Z" style="fill:#f0f0f0"></path><path d="M132.38,294.53a.43.43,0,0,1-.29-.07.39.39,0,0,1-.11-.57,11,11,0,0,1,7.91-3.72.43.43,0,0,1,.43.43.42.42,0,0,1-.45.4,10.22,10.22,0,0,0-7.16,3.35A.44.44,0,0,1,132.38,294.53Z" style="fill:#f0f0f0"></path><path d="M128.83,292.19a.45.45,0,0,1-.28-.07.39.39,0,0,1-.12-.57c1.56-2.19,5.36-3.86,8.68-3.79a.43.43,0,0,1,.43.43.43.43,0,0,1-.45.4c-3-.06-6.54,1.47-7.93,3.41A.45.45,0,0,1,128.83,292.19Z" style="fill:#f0f0f0"></path><path d="M80,265.74H98.71l-5.19,22.88-1.44,5.58C91.34,298.27,82,299,80,292.57l.29-5.52C80.44,282,79.84,273.34,80,265.74Z" style="fill:#ffa8a7"></path><path d="M92.42,316.24c-.21,4.18-.81,7-2.22,9.43s-4.09,3.27-6.82,2.58-6.23-2.57-7-6.17a23.84,23.84,0,0,1-.08-10Z" style="fill:#263238"></path><path d="M80.31,287.05c-1,.32-1.14,6.05-1.75,11.68-.65,6-1.66,7.87-2.25,12.82-.66,5.65-.27,7.54,1.65,10.93s8.67,6.67,12,1.75c2.68-4,2.67-7.81,2.38-13.44a123.53,123.53,0,0,1-.05-13.44c.19-4.23,2.26-8.27,1.28-8.73a16.65,16.65,0,0,1-.65,3.18,5.37,5.37,0,0,1-.57,1.57c-.52.79-.79-.49-.79-1,0-.83.25-1.5-.38-2.19a4.38,4.38,0,0,0-1.68-1,10.45,10.45,0,0,0-2-.59,20.8,20.8,0,0,0-4.32-.2,2,2,0,0,0-1.67.74,1.41,1.41,0,0,0-.15.45c-.11.55-.05,1.12-.15,1.68,0,.15-.09.56-.23.65s-.37.06-.38-.05S80.21,288,80.31,287.05Z" style="fill:#37474f"></path><path d="M76.53,309.61c-.1.82-.61,5.91.81,6.87s2.34-3.22,2.34-3.22,3.57-1.18,8.8,1.14c-.26.88.56,3.76,2,3.13s1.85-6.18,1.85-6.26c.26,5.41.2,9.06-2.4,13-3.28,4.92-10,1.65-12-1.75s-2.31-5.28-1.65-10.93C76.38,311,76.44,310.12,76.53,309.61Z" style="fill:#455a64"></path><path d="M80.09,313.62c0,2-1.76,1.36-2-1.51-.43-4.29.57-8.42.52-13.38.61-5.63.63-11.58,1.75-11.68,0,1,.19,4.85.19,4.85-.32,4.21-1.35,9.14-1.15,13.47C79.51,309.19,80.1,311.58,80.09,313.62Z" style="fill:#263238"></path><path d="M87.87,314.35c.36-2,1-2.58,1.34-6.39s2.32-10.64,3.06-14.76c.2-1.27,1.25-4.54,1.25-4.58.71.34.06,2.71-.48,5.26s-.89,4.12-1.23,6.57c-.93,4.86-1,10-1.65,12.84S87.52,316.36,87.87,314.35Z" style="fill:#263238"></path><path d="M88.32,314.45a.38.38,0,0,1-.15-.05,12.83,12.83,0,0,0-8.65-.84.41.41,0,0,1-.51-.3.43.43,0,0,1,.29-.53,13.33,13.33,0,0,1,9.25.9.45.45,0,0,1,.18.58A.44.44,0,0,1,88.32,314.45Z" style="fill:#f0f0f0"></path><path d="M89.42,310.38a.37.37,0,0,1-.14,0s-5-2.35-10.09-1.08a.42.42,0,0,1-.5-.32.44.44,0,0,1,.31-.52,17.36,17.36,0,0,1,10.64,1.14.45.45,0,0,1,.2.57A.42.42,0,0,1,89.42,310.38Z" style="fill:#f0f0f0"></path><path d="M78.59,306a.4.4,0,0,1-.35-.29.43.43,0,0,1,.26-.55c5-1.83,11.64.55,11.85.66a.44.44,0,0,1,.18.59.41.41,0,0,1-.56.18s-6.53-2.32-11.2-.61A.37.37,0,0,1,78.59,306Z" style="fill:#f0f0f0"></path><path d="M79.38,302.28A.4.4,0,0,1,79,302a.43.43,0,0,1,.25-.55c5.51-2.13,11.22,1,11.42,1.09a.44.44,0,0,1,.14.59.4.4,0,0,1-.57.15s-5.57-3-10.7-1A.43.43,0,0,1,79.38,302.28Z" style="fill:#f0f0f0"></path><path d="M79.69,297.82a.41.41,0,0,1-.35-.27.44.44,0,0,1,.24-.56c5.17-2.08,11.28,1.08,11.49,1.21a.45.45,0,0,1,.16.59.39.39,0,0,1-.56.16s-6-3.09-10.79-1.16A.31.31,0,0,1,79.69,297.82Z" style="fill:#ebebeb"></path><path d="M110.94,207l2.86,22s-.26,7.54.11,14.82,3.49,24.61,5.09,32.34a16.07,16.07,0,0,0,15.93.14s1.59-38.51,2.24-48.73-.89-51.66-1.38-67.86l-50,.15s-1,8.72-1.87,21.73S81,228.92,81,228.92c-2.27,15.42-2.65,23.82-1.41,50.63,7.57,5.29,16.62.82,16.62.82s4.52-22.68,7.14-34.3,4.69-26.43,7.6-39.12" style="fill:#455a64"></path><path d="M129.34,185l1.43,19.87c.09,3.18.8,10.12.85,13.3s.3,7.54.27,13.07-.07,21.29.18,27.66c.94-7.06,1-22.92,1-31.19s-.58-13.7-1.43-22.92S130.15,191.29,129.34,185Z" style="fill:#37474f"></path><path d="M102.2,184.62c-1.84,12.6-4.55,35-5.48,42.26s-4.64,30.51-5.34,37.78c1.27-7.19,5.8-30.34,6.8-37.6S101.55,198.41,102.2,184.62Z" style="fill:#37474f"></path><path d="M114.9,184l-4,22.93,2.86,22-.7-21.11,4.62-21.58s8.68-2.57,10.94-11.41C124.24,182,114.9,184,114.9,184Z" style="fill:#37474f"></path></g><g id="freepik--top--inject-173"><path d="M137,136c3.61,5.18,5,5.93,7.52,7.95,4.43,3.49,5.72,4.18,9.61,6.91,3.52,2.47,7.42,5,9.49,6.35,1.66,1.1,3,3.24,3.85,4.28a23.4,23.4,0,0,0,2.67,2.5c.78.75,1.18.78,1.18.78a8,8,0,0,0,1.57,2.53,2.45,2.45,0,0,0,2.37,0c.44-.21.36-1.06.36-1.06.7.83,1.69.61,2.59.12a1.34,1.34,0,0,0,.7-1.62,2.37,2.37,0,0,0,2.82-1,2.18,2.18,0,0,0,0-1.72c.56.58,1.89,1.74,2.8,2.67a24.33,24.33,0,0,0,3.27,2.82,4.91,4.91,0,0,0,1.8.93c.62.14,1.71.06,1.87-.68s-.77-1.72-1.22-2.32c-.64-.85-1.49-1.71-2.17-2.53-1.36-1.64-2.68-3.06-4.05-4.69a14.19,14.19,0,0,1-2.61-4.43c-.43-1.27,1.38-1.1,2.14-1.31a7.11,7.11,0,0,0,3.25-1.53c1.41-1.46,1.13-2.53.29-2.68-.68,0-3.65.47-5.53.39s-2.46-.12-4-.22a37,37,0,0,0-4.3-.1,7.16,7.16,0,0,1-4.78-1.48c-8.34-6.49-17.61-16.7-17.61-16.7s-12-23-14.7-26.86-8-5.89-8-5.89l-.7,24.19S133.84,131.46,137,136Z" style="fill:#ffa8a7"></path><path d="M128.08,97.23a16.49,16.49,0,0,1,7.46,4.75c2.07,2.21,4.78,8.11,7.24,12.55,2,3.58,4.57,8.59,4.57,8.59s-1.47,8.5-12.17,11l-8.28-12.42Z" style="fill:#BA68C8"></path><path d="M172.8,161.87a4.73,4.73,0,0,0,.8,1.09,11.77,11.77,0,0,1,.7,1.08c.45.75.88,1.5,1.34,2.25-.32-.82-.69-1.61-1.08-2.39a9.63,9.63,0,0,0-.68-1.15,4.86,4.86,0,0,1-.73-1,2.64,2.64,0,0,1-.08-1.2,2.7,2.7,0,0,1,.27-1.18,1.7,1.7,0,0,1,.44-.4.6.6,0,0,1,.54-.06,1.34,1.34,0,0,1,.7.55,4.07,4.07,0,0,0,.12.92,4.25,4.25,0,0,0,.81,1.27c.32.37.63.73,1,1.08.66.7,1.32,1.41,2,2.08-.57-.78-1.18-1.53-1.79-2.28a9.39,9.39,0,0,1-1.64-2.27,4,4,0,0,1-.14-1.36,7.64,7.64,0,0,1,.27-1.38,1.14,1.14,0,0,1,.87-.89c1-.22,1.31,1.33,1.6,1.94a5.67,5.67,0,0,0,1,1.39,13.65,13.65,0,0,0,2.62,2.13,10.12,10.12,0,0,1-1.25-1.11,16.36,16.36,0,0,1-1.16-1.2,6.42,6.42,0,0,1-.9-1.36c-.35-.73-.52-1.63-1.27-2.05a1.18,1.18,0,0,0-1.21.12,6.73,6.73,0,0,1-1.24.51,5.28,5.28,0,0,1-2.84.14,6.35,6.35,0,0,1-3.11-1.61,7.15,7.15,0,0,0,2.72,2.13,6,6,0,0,0,2.76.58l-.33.45a.57.57,0,0,0-.22.07,2,2,0,0,0-.55.43,2.63,2.63,0,0,0-.38,1.32,4.18,4.18,0,0,0,0,.87.67.67,0,0,0-.37,0,1.15,1.15,0,0,0-.49.33,4.32,4.32,0,0,0-.56.94,4.72,4.72,0,0,0-.18.53,1.43,1.43,0,0,0,0,.58,4.27,4.27,0,0,0,.27,1l0-1.06a1.71,1.71,0,0,1,.08-.47,3.94,3.94,0,0,1,.18-.48,7.13,7.13,0,0,1,.45-.92.89.89,0,0,1,.63-.43A2.33,2.33,0,0,0,172.8,161.87Zm4.34-5.29h0s0,0,0,0Z" style="fill:#f28f8f"></path><g id="freepik--chest--inject-173"><path id="freepik--chest--inject-173" d="M100.21,95.2,86,99.42s-5.67,10.43-1.52,30.79a99.61,99.61,0,0,1,1.21,18.65c-.13,5.62-1,14.21-1.14,18.06,0,0,9.32,6,31.07,4,17.07-1.62,20.82-8,20.82-8V126.54c0-20.78-3.72-25.61-8.36-29.31-.6-.37-13-2.29-13-2.29Z" style="fill:#263238"></path></g><g id="freepik--head--inject-173"><path d="M114.51,50.44c-9.19-1.29-15.92,2.34-17.26,8.08-3.48,0-5.46,2.81-6,6.24-1.68,11.54,7.59,17.57,9,23.23l26.3-20.24C129.48,62.74,125.55,52,114.51,50.44Z" style="fill:#263238"></path><path d="M93.71,56.31l4.66,1.53a2.58,2.58,0,0,1-3.2,1.54A2.33,2.33,0,0,1,93.71,56.31Z" style="fill:#263238"></path><path d="M97.42,53.2l1,4.72a2.58,2.58,0,0,1-3-2A2.36,2.36,0,0,1,97.42,53.2Z" style="fill:#263238"></path><path d="M106.78,62.05a5.12,5.12,0,0,1-.39,3.18c-.89,1.81-3,2.93-3.56,4.86-.39,1.24-.11,2.58-.29,3.86a2.7,2.7,0,0,1-.5,1.32,1.33,1.33,0,0,1-1.24.53,6.09,6.09,0,0,0-2.42-4.64,3.85,3.85,0,0,0-5.83,1.64A7.39,7.39,0,0,0,95,81.38a3.78,3.78,0,0,0,4.89-.47l-.15,14.66c2.48,4.06,8.48,6.82,14.29,6.16s4.37-3.58,2.22-5.77l.08-5.09a14.06,14.06,0,0,0,4.38-.61c3.54-1.14,5.37-5,6.18-8.78,1-4.64.16-8.43-.27-12.45-.23-2.2-.15-4.42-.84-6.55a8.44,8.44,0,0,0-4.46-5,4.15,4.15,0,0,1-3.47,2.76,12.07,12.07,0,0,1-4.65-.47l-4.43-1a4.06,4.06,0,0,0-1.58-.15,1.34,1.34,0,0,0-1.13,1,2.61,2.61,0,0,0,.36,1.41A5.26,5.26,0,0,1,106.78,62.05Z" style="fill:#ffa8a7"></path><polygon points="117.04 68.72 118.73 78.16 123.38 76.07 117.04 68.72" style="fill:#f28f8f"></polygon><path d="M113.55,68.12,109.92,67a1.94,1.94,0,0,1,2.41-1.26A1.88,1.88,0,0,1,113.55,68.12Z" style="fill:#263238"></path><path d="M124.66,66.35l-3.31,1.88a1.94,1.94,0,0,1,.73-2.62A1.89,1.89,0,0,1,124.66,66.35Z" style="fill:#263238"></path><path d="M110.44,71.94a1.54,1.54,0,1,0,1.43-1.65A1.53,1.53,0,0,0,110.44,71.94Z" style="fill:#263238"></path><path d="M121.65,71.26a1.54,1.54,0,1,0,1.43-1.65A1.54,1.54,0,0,0,121.65,71.26Z" style="fill:#263238"></path><path d="M116.36,90.87a32,32,0,0,1-7.72-1.17c-3-1-4.29-1.89-5.87-5.22a8.1,8.1,0,0,0,2.34,4.87c3.55,3.1,11.21,3.19,11.21,3.19Z" style="fill:#f28f8f"></path><path d="M118.38,81.29a4.42,4.42,0,0,0-2-1.17,5.45,5.45,0,0,0-1-.22l-.5,0a.88.88,0,0,0-.4,0c-.08,0-.08.11-.14.16s0,.21,0,.24a1.43,1.43,0,0,0,.28.13,1.34,1.34,0,0,0,.35,0l.51,0a5.42,5.42,0,0,1,1,.21,8.14,8.14,0,0,1,1.79.84C118.47,81.69,118.46,81.39,118.38,81.29Z" style="fill:#b16668"></path></g><g id="freepik--Arm--inject-173"><path d="M75.85,176.21c-1-1.18-2.35-2.24-2.75-3.82a2.67,2.67,0,0,1,.46-2.37,1.13,1.13,0,0,0,.29-.43,1,1,0,0,0,0-.43,2.82,2.82,0,0,1,.17-1.77,1.81,1.81,0,0,1,1.16-.93,4.27,4.27,0,0,1,.1-2.69c.39-1,1.46-1.79,2.12-.62a9.09,9.09,0,0,1,.74,1.8,21.15,21.15,0,0,1,.88,4.8c.12,1.69.37,6.48-2.25,6.63C76.57,176.39,76,176.38,75.85,176.21Z" style="fill:#f28f8f"></path><path d="M85.17,102.35C77.7,103.88,74.79,108,69.7,115.07c-5.89,8.17-11.64,15.84-13.63,19.8-2.47,4.9-3,6.8,2.15,12.26,2.66,2.81,6.39,6.18,10.17,10,3,3,6.59,6.18,9.48,9.27a2.72,2.72,0,0,1,.84,2.77,18.23,18.23,0,0,0-.59,2,17.19,17.19,0,0,0,.13,2.68,2.33,2.33,0,0,1-1.12,2.27,2.64,2.64,0,0,1-1.28.12,9.12,9.12,0,0,0,2.41,1.41,3.78,3.78,0,0,0,2.75,0c.83-.37,1.47-1.13,2.35-1.36.47-.13,1-.09,1.46-.2a2.34,2.34,0,0,0,1.26-.77c.52-.62.75-1.51,1.47-1.87a10,10,0,0,1,1.1-.32,2.43,2.43,0,0,0,1.4-1.76,6.75,6.75,0,0,0,0-2.33A56.8,56.8,0,0,0,89,162.8a6.1,6.1,0,0,0-.93-1.92c-.45-.7-.88-1.41-1.37-2.08-3.33-4.51-13.84-19.54-13.84-19.54L84,126.78S91.26,116.9,85.17,102.35Z" style="fill:#ffa8a7"></path><path d="M75.85,176.22c1.7,1.37,4.26,2.39,6.1.69a3.86,3.86,0,0,1,1.54-.81c1.14-.1,2.24-.25,2.79-1.37a3.73,3.73,0,0,1,1.07-1.4c.57-.34,1.17-.27,1.58-.59a2.42,2.42,0,0,0,.88-1.26c.45-2.63-.51-5.66-1-8.29-.34-1.67-1.56-2.93-2.41-4.36l-2-2.78c-3.79-5.39-8-11.37-11.63-16.79,3.89,5.26,8.14,11.18,12,16.54l2,2.77c.88,1.45,2.17,2.8,2.5,4.52s.66,3.35.88,5a8.28,8.28,0,0,1,0,3.47,2.72,2.72,0,0,1-1,1.46c-.54.37-1.2.31-1.6.57a3.47,3.47,0,0,0-1,1.27,2.67,2.67,0,0,1-1.31,1.17,7.09,7.09,0,0,1-1.7.28c-1.11.21-1.87,1.29-3,1.52-1.75.39-3.39-.62-4.69-1.65Z" style="fill:#f28f8f"></path><path d="M72.84,139.26c-3.16,2.9-7.91,3-9.66,2.84a10.05,10.05,0,0,0,10.61-1.48Z" style="fill:#f28f8f"></path></g><path d="M67.63,135.13a28.73,28.73,0,0,1-5-4.59,18,18,0,0,1-2.1-3c-.08-.13-.16-.28-.24-.43l.36-.51c4.54-6.27,9.26-13.39,12.77-18.07,3.13-4.17,5.73-7.79,12.59-9.08,7.31,11.85.79,24.82-1.74,27.71C82.21,129.48,76.18,136,74,138.4A24.57,24.57,0,0,1,67.63,135.13Z" style="fill:#BA68C8"></path></g></g></g></svg>
